# xmcd
#
# Track frame offsets:
#	150
#	12831
#	29885
#	44564
#	61894
#	74621
#	91581
#	106244
#
# Disc length: 1645 seconds
#
# Revision: 1
# Processed by: cddbd v1.5.1PL2 Copyright (c) Steve Scherf et al.
# Submitted via: audiograbber 1.83.01
#
DISCID=68066b08
DTITLE=Various Artist - sm9142
DYEAR=1900
DGENRE=Country
TTITLE0=Rimes, Leann - Blue
TTITLE1=Rimes, Leann - One Way Ticket
TTITLE2=Twain, Shania - If You're Not in It For Love
TTITLE3=Hill, Faith and McGraw, Tim - It's Your Love
TTITLE4=Rimes, Leann - Blue (Vocals)
TTITLE5=Rimes, Leann - One Way Ticket (Vocals)
TTITLE6=Twain, Shania - If You're Not in It For Love (Vocals)
TTITLE7=Hill, Faith and McGraw, Tim - It's Your Love (Vocals)
EXTD=
EXTT0=
EXTT1=
EXTT2=
EXTT3=
EXTT4=
EXTT5=
EXTT6=
EXTT7=
PLAYORDER=
